<?xml version="1.0" encoding="UTF-8" standalone="no"?>
<!-- Created with Inkscape (http://www.inkscape.org/) -->
<svg
   xmlns:dc="http://purl.org/dc/elements/1.1/"
   xmlns:cc="http://creativecommons.org/ns#"
   xmlns:rdf="http://www.w3.org/1999/02/22-rdf-syntax-ns#"
   xmlns:svg="http://www.w3.org/2000/svg"
   xmlns="http://www.w3.org/2000/svg"
   xmlns:sodipodi="http://sodipodi.sourceforge.net/DTD/sodipodi-0.dtd"
   xmlns:inkscape="http://www.inkscape.org/namespaces/inkscape"
   width="744.09448819"
   height="1052.3622047"
   id="svg2"
   sodipodi:version="0.32"
   inkscape:version="0.46+pre4"
   sodipodi:docname="man silhouette.svg"
   inkscape:output_extension="org.inkscape.output.svg.inkscape">
  <defs
     id="defs4">
    <inkscape:perspective
       sodipodi:type="inkscape:persp3d"
       inkscape:vp_x="0 : 526.18109 : 1"
       inkscape:vp_y="0 : 1000 : 0"
       inkscape:vp_z="744.09448 : 526.18109 : 1"
       inkscape:persp3d-origin="372.04724 : 350.78739 : 1"
       id="perspective10" />
    <inkscape:perspective
       id="perspective2390"
       inkscape:persp3d-origin="372.04724 : 350.78739 : 1"
       inkscape:vp_z="744.09448 : 526.18109 : 1"
       inkscape:vp_y="0 : 1000 : 0"
       inkscape:vp_x="0 : 526.18109 : 1"
       sodipodi:type="inkscape:persp3d" />
  </defs>
  <sodipodi:namedview
     id="base"
     pagecolor="#ffffff"
     bordercolor="#666666"
     borderopacity="1.0"
     gridtolerance="10000"
     guidetolerance="10"
     objecttolerance="10"
     inkscape:pageopacity="0.0"
     inkscape:pageshadow="2"
     inkscape:zoom="0.35"
     inkscape:cx="-23.571429"
     inkscape:cy="520"
     inkscape:document-units="px"
     inkscape:current-layer="layer1"
     showgrid="false"
     inkscape:window-width="1280"
     inkscape:window-height="975"
     inkscape:window-x="-4"
     inkscape:window-y="-4" />
  <metadata
     id="metadata7">
    <rdf:RDF>
      <cc:Work
         rdf:about="">
        <dc:format>image/svg+xml</dc:format>
        <dc:type
           rdf:resource="http://purl.org/dc/dcmitype/StillImage" />
        <dc:title>Man silhouette</dc:title>
        <dc:subject>
          <rdf:Bag>
            <rdf:li>Man silhouette people person head shoulders face</rdf:li>
          </rdf:Bag>
        </dc:subject>
      </cc:Work>
    </rdf:RDF>
  </metadata>
  <g
     inkscape:label="Layer 1"
     inkscape:groupmode="layer"
     id="layer1">
    <path
       style="fill:#000000"
       d="M 46.428567,778.04663 C 46.428567,767.3943 64.167241,675.84385 67.173765,670.97916 C 68.244958,669.24597 70.905714,658.01916 73.086531,646.03074 C 78.173816,618.06533 87.553113,588.01762 93.073953,581.99864 C 95.447303,579.41114 116.74483,573.26055 140.40183,568.33063 C 213.07653,553.18583 245.10704,541.52022 260.92082,524.43731 C 268.45832,516.29486 279.85818,507.80867 286.25385,505.57914 C 296.41521,502.03687 297.88231,499.78313 297.88231,487.71549 C 297.88231,480.12001 295.56068,470.57426 292.72315,466.50266 C 289.88563,462.43106 286.31562,451.49984 284.78979,442.21107 C 283.26395,432.92229 278.83011,422.30107 274.93678,418.60838 C 271.04345,414.91565 267.85798,410.20288 267.85798,408.13552 C 267.85798,406.06819 264.05803,399.23709 259.41364,392.95537 C 252.21061,383.21292 250.90016,376.477 250.49889,347.13257 C 249.72366,290.43943 254.58351,264.49683 270.45978,240.57822 C 292.87695,206.80531 336.16802,183.41369 376.45429,183.30583 C 392.19605,183.26368 398.81014,185.08883 405.42041,191.29883 C 410.41207,195.98826 422.14295,200.6358 433.53231,202.43621 C 456.19223,206.01826 476.57177,220.4084 486.46681,239.81368 C 491.44147,249.56956 493.03021,261.9343 493.03464,290.92965 C 493.0379,312.37273 494.68939,330.19592 496.79349,331.49635 C 506.99895,337.80368 497.47846,381.38253 481.46825,401.6458 C 475.44792,409.26541 470.48512,418.55418 470.43979,422.28752 C 470.39445,426.02086 467.01671,436.43754 462.93371,445.43568 C 449.37344,475.31983 454.03967,504.89669 473.3592,511.51717 C 476.95927,512.75087 485.81585,521.36087 493.04045,530.65047 C 500.26506,539.94011 510.39827,548.49517 515.5587,549.66165 C 520.71913,550.82817 543.86151,559.21749 566.98617,568.30462 C 590.11084,577.39171 610.15816,584.82663 611.53579,584.82663 C 612.91338,584.82663 621.35652,589.47102 630.29829,595.1475 C 646.27784,605.29174 654.42122,618.8326 654.42122,635.25917 C 654.42122,639.67515 657.91358,649.97856 662.18199,658.15565 C 669.05107,671.31479 673.72646,696.5505 683.18874,771.54043 L 685.20138,787.49086 L 365.81495,787.49086 L 46.428567,787.49086 L 46.428567,778.04663 z"
       id="path2396" />
  </g>
</svg>
