<svg xmlns="http://www.w3.org/2000/svg" width="13.938" height="16" viewBox="0 0 13.938 16">
  <metadata><?xpacket begin="﻿" id="W5M0MpCehiHzreSzNTczkc9d"?>
<x:xmpmeta xmlns:x="adobe:ns:meta/" x:xmptk="Adobe XMP Core 5.6-c138 79.159824, 2016/09/14-01:09:01        ">
   <rdf:RDF xmlns:rdf="http://www.w3.org/1999/02/22-rdf-syntax-ns#">
      <rdf:Description rdf:about=""/>
   </rdf:RDF>
</x:xmpmeta>
                                                                                                    
                                                                                                    
                                                                                                    
                                                                                                    
                                                                                                    
                                                                                                    
                                                                                                    
                                                                                                    
                                                                                                    
                                                                                                    
                                                                                                    
                                                                                                    
                                                                                                    
                                                                                                    
                                                                                                    
                                                                                                    
                                                                                                    
                                                                                                    
                                                                                                    
                                                                                                    
                           
<?xpacket end="w"?></metadata>
<defs>
    <style>
      .cls-1 {
        fill: #fc0;
        fill-rule: evenodd;
      }
    </style>
  </defs>
  <path id="champ" class="cls-1" d="M356.9,849.735a2.249,2.249,0,0,0-2.14-1.742h-9.528a2.25,2.25,0,0,0-2.141,1.742,2.926,2.926,0,0,0,.447,2.325,6.54,6.54,0,0,0,2.26,2.045,4.216,4.216,0,0,0,3.469,3.865v1.6h-2.259a0.728,0.728,0,0,0-.729.728v2.986a0.728,0.728,0,0,0,.729.728h5.976a0.728,0.728,0,0,0,.728-0.728v-2.986a0.728,0.728,0,0,0-.728-0.728h-2.26v-1.593a4.216,4.216,0,0,0,3.477-3.871,6.537,6.537,0,0,0,2.252-2.041A2.917,2.917,0,0,0,356.9,849.735Zm-12.4.36a0.8,0.8,0,0,1,.729-0.647h0.55l0,2.9C344.664,851.481,344.365,850.65,344.507,850.1Zm9.707,2.247v-2.894h0.549a0.806,0.806,0,0,1,.73.647C355.635,850.65,355.336,851.478,354.214,852.342Z" transform="translate(-343.031 -848)"/>
</svg>
