<svg xmlns="http://www.w3.org/2000/svg" width="16" height="11.624" viewBox="0 0 16 11.624">
  <metadata><?xpacket begin="﻿" id="W5M0MpCehiHzreSzNTczkc9d"?>
<x:xmpmeta xmlns:x="adobe:ns:meta/" x:xmptk="Adobe XMP Core 5.6-c138 79.159824, 2016/09/14-01:09:01        ">
   <rdf:RDF xmlns:rdf="http://www.w3.org/1999/02/22-rdf-syntax-ns#">
      <rdf:Description rdf:about=""/>
   </rdf:RDF>
</x:xmpmeta>
                                                                                                    
                                                                                                    
                                                                                                    
                                                                                                    
                                                                                                    
                                                                                                    
                                                                                                    
                                                                                                    
                                                                                                    
                                                                                                    
                                                                                                    
                                                                                                    
                                                                                                    
                                                                                                    
                                                                                                    
                                                                                                    
                                                                                                    
                                                                                                    
                                                                                                    
                                                                                                    
                           
<?xpacket end="w"?></metadata>
<defs>
    <style>
      .cls-1 {
        fill: #c6d1de;
        fill-rule: evenodd;
      }
    </style>
  </defs>
  <path id="email" class="cls-1" d="M1056.96,298.191h-14.92a0.539,0.539,0,0,0-.54.542v10.534a0.54,0.54,0,0,0,.54.542h14.92a0.547,0.547,0,0,0,.54-0.542V298.733A0.546,0.546,0,0,0,1056.96,298.191Zm-0.55,10.534h-13.82v-9.45h13.82v9.45Zm-12.4-6.9,5.2,3.206a0.571,0.571,0,0,0,.29.08,0.511,0.511,0,0,0,.28-0.08l5.21-3.206a0.535,0.535,0,0,0,.18-0.745,0.546,0.546,0,0,0-.75-0.177l-4.92,3.03-4.92-3.03a0.546,0.546,0,0,0-.75.177A0.535,0.535,0,0,0,1044.01,301.827Z" transform="translate(-1041.5 -298.188)"/>
</svg>
