<svg xmlns="http://www.w3.org/2000/svg" width="12" height="9.438" viewBox="0 0 12 9.438">
  <metadata><?xpacket begin="﻿" id="W5M0MpCehiHzreSzNTczkc9d"?>
<x:xmpmeta xmlns:x="adobe:ns:meta/" x:xmptk="Adobe XMP Core 5.6-c138 79.159824, 2016/09/14-01:09:01        ">
   <rdf:RDF xmlns:rdf="http://www.w3.org/1999/02/22-rdf-syntax-ns#">
      <rdf:Description rdf:about=""/>
   </rdf:RDF>
</x:xmpmeta>
                                                                                                    
                                                                                                    
                                                                                                    
                                                                                                    
                                                                                                    
                                                                                                    
                                                                                                    
                                                                                                    
                                                                                                    
                                                                                                    
                                                                                                    
                                                                                                    
                                                                                                    
                                                                                                    
                                                                                                    
                                                                                                    
                                                                                                    
                                                                                                    
                                                                                                    
                                                                                                    
                           
<?xpacket end="w"?></metadata>
<defs>
    <style>
      .cls-1 {
        fill: #007aff;
        fill-rule: evenodd;
      }
    </style>
  </defs>
  <path id="email" class="cls-1" d="M154.651,758.692q0.228,0.16,1.373.954t1.755,1.222l0.284,0.2q0.218,0.158.362,0.255c0.1,0.065.212,0.137,0.348,0.217a1.991,1.991,0,0,0,.385.181,1.07,1.07,0,0,0,.335.06h0.013a1.065,1.065,0,0,0,.335-0.06,1.964,1.964,0,0,0,.385-0.181c0.137-.08.253-0.152,0.349-0.217s0.216-.15.361-0.255,0.24-.173.285-0.2l3.134-2.176a3.2,3.2,0,0,0,.817-0.824,1.77,1.77,0,0,0,.328-1.011,1.081,1.081,0,0,0-1.071-1.072h-9.858a0.957,0.957,0,0,0-.794.348,1.357,1.357,0,0,0-.278.871,1.562,1.562,0,0,0,.369.914A3.324,3.324,0,0,0,154.651,758.692Zm10.18,0.716q-2.2,1.486-3.336,2.311c-0.254.187-.46,0.334-0.619,0.438a3.824,3.824,0,0,1-.633.322,1.935,1.935,0,0,1-.736.164h-0.014a1.94,1.94,0,0,1-.737-0.164,3.906,3.906,0,0,1-.633-0.322c-0.158-.1-0.364-0.251-0.619-0.438q-0.9-.663-3.328-2.311a3.558,3.558,0,0,1-.677-0.582v5.317a1.075,1.075,0,0,0,1.072,1.072h9.858a1.074,1.074,0,0,0,1.071-1.072v-5.317A3.71,3.71,0,0,1,164.831,759.408Z" transform="translate(-153.5 -755.781)"/>
</svg>
