<svg xmlns="http://www.w3.org/2000/svg" width="16" height="16" viewBox="0 0 16 16">
  <metadata><?xpacket begin="﻿" id="W5M0MpCehiHzreSzNTczkc9d"?>
<x:xmpmeta xmlns:x="adobe:ns:meta/" x:xmptk="Adobe XMP Core 5.6-c138 79.159824, 2016/09/14-01:09:01        ">
   <rdf:RDF xmlns:rdf="http://www.w3.org/1999/02/22-rdf-syntax-ns#">
      <rdf:Description rdf:about=""/>
   </rdf:RDF>
</x:xmpmeta>
                                                                                                    
                                                                                                    
                                                                                                    
                                                                                                    
                                                                                                    
                                                                                                    
                                                                                                    
                                                                                                    
                                                                                                    
                                                                                                    
                                                                                                    
                                                                                                    
                                                                                                    
                                                                                                    
                                                                                                    
                                                                                                    
                                                                                                    
                                                                                                    
                                                                                                    
                                                                                                    
                           
<?xpacket end="w"?></metadata>
<defs>
    <style>
      .cls-1 {
        fill: #007bb6;
        fill-rule: evenodd;
      }
    </style>
  </defs>
  <path id="linkedin" class="cls-1" d="M357.148,672h-14.3a0.852,0.852,0,0,0-.851.851v14.3a0.851,0.851,0,0,0,.851.851h14.3a0.851,0.851,0,0,0,.851-0.851v-14.3A0.852,0.852,0,0,0,357.148,672ZM346.5,686.331h-2.629v-8.458H346.5v8.458h0Zm-1.314-9.614a1.525,1.525,0,1,1,1.523-1.525A1.525,1.525,0,0,1,345.182,676.717Zm11.16,9.614h-2.626v-4.113c0-.981-0.018-2.243-1.367-2.243-1.367,0-1.577,1.069-1.577,2.172v4.184h-2.628v-8.458h2.522v1.155H350.7a2.764,2.764,0,0,1,2.488-1.366c2.662,0,3.153,1.752,3.153,4.029v4.64h0Z" transform="translate(-342 -672)"/>
</svg>
