<svg xmlns="http://www.w3.org/2000/svg" width="16" height="16" viewBox="0 0 16 16">
  <metadata><?xpacket begin="﻿" id="W5M0MpCehiHzreSzNTczkc9d"?>
<x:xmpmeta xmlns:x="adobe:ns:meta/" x:xmptk="Adobe XMP Core 5.6-c138 79.159824, 2016/09/14-01:09:01        ">
   <rdf:RDF xmlns:rdf="http://www.w3.org/1999/02/22-rdf-syntax-ns#">
      <rdf:Description rdf:about=""/>
   </rdf:RDF>
</x:xmpmeta>
                                                                                                    
                                                                                                    
                                                                                                    
                                                                                                    
                                                                                                    
                                                                                                    
                                                                                                    
                                                                                                    
                                                                                                    
                                                                                                    
                                                                                                    
                                                                                                    
                                                                                                    
                                                                                                    
                                                                                                    
                                                                                                    
                                                                                                    
                                                                                                    
                                                                                                    
                                                                                                    
                           
<?xpacket end="w"?></metadata>
<defs>
    <style>
      .cls-1 {
        fill: #c6d1de;
        fill-rule: evenodd;
      }
    </style>
  </defs>
  <path id="linkedin" class="cls-1" d="M1001.15,359h-14.3a0.851,0.851,0,0,0-.851.851v14.3a0.851,0.851,0,0,0,.851.851h14.3a0.85,0.85,0,0,0,.85-0.851v-14.3A0.85,0.85,0,0,0,1001.15,359ZM990.5,373.332h-2.629v-8.459H990.5v8.459h0Zm-1.314-9.615a1.525,1.525,0,1,1,1.523-1.525A1.525,1.525,0,0,1,989.182,363.717Zm11.158,9.614h-2.624v-4.113c0-.981-0.018-2.243-1.367-2.243-1.367,0-1.577,1.069-1.577,2.172v4.184h-2.627v-8.458h2.521v1.156H994.7a2.765,2.765,0,0,1,2.488-1.367c2.662,0,3.151,1.752,3.151,4.03v4.639h0Z" transform="translate(-986 -359)"/>
</svg>
