<svg xmlns="http://www.w3.org/2000/svg" width="9.562" height="16" viewBox="0 0 9.562 16">
  <metadata><?xpacket begin="﻿" id="W5M0MpCehiHzreSzNTczkc9d"?>
<x:xmpmeta xmlns:x="adobe:ns:meta/" x:xmptk="Adobe XMP Core 5.6-c138 79.159824, 2016/09/14-01:09:01        ">
   <rdf:RDF xmlns:rdf="http://www.w3.org/1999/02/22-rdf-syntax-ns#">
      <rdf:Description rdf:about=""/>
   </rdf:RDF>
</x:xmpmeta>
                                                                                                    
                                                                                                    
                                                                                                    
                                                                                                    
                                                                                                    
                                                                                                    
                                                                                                    
                                                                                                    
                                                                                                    
                                                                                                    
                                                                                                    
                                                                                                    
                                                                                                    
                                                                                                    
                                                                                                    
                                                                                                    
                                                                                                    
                                                                                                    
                                                                                                    
                                                                                                    
                           
<?xpacket end="w"?></metadata>
<defs>
    <style>
      .cls-1 {
        fill: #007aff;
        fill-rule: evenodd;
      }
    </style>
  </defs>
  <path id="Forma_1" data-name="Forma 1" class="cls-1" d="M162.576,712h-7.153a1.212,1.212,0,0,0-1.21,1.211v13.586a1.212,1.212,0,0,0,1.21,1.211h7.153a1.212,1.212,0,0,0,1.211-1.211V713.207A1.212,1.212,0,0,0,162.576,712Zm-3.1,14.75a0.171,0.171,0,0,1-.172.171h-0.617a0.171,0.171,0,0,1-.171-0.171V726.2a0.17,0.17,0,0,1,.073-0.14l0.308-.218a0.175,0.175,0,0,1,.2,0l0.308,0.218a0.17,0.17,0,0,1,.073.14v0.549h0Zm2.867-1.665h-6.694V713.837h6.694v11.244Z" transform="translate(-154.219 -712)"/>
</svg>
