<svg xmlns="http://www.w3.org/2000/svg" width="14" height="15.688" viewBox="0 0 14 15.688">
  <metadata><?xpacket begin="﻿" id="W5M0MpCehiHzreSzNTczkc9d"?>
<x:xmpmeta xmlns:x="adobe:ns:meta/" x:xmptk="Adobe XMP Core 5.6-c138 79.159824, 2016/09/14-01:09:01        ">
   <rdf:RDF xmlns:rdf="http://www.w3.org/1999/02/22-rdf-syntax-ns#">
      <rdf:Description rdf:about=""/>
   </rdf:RDF>
</x:xmpmeta>
                                                                                                    
                                                                                                    
                                                                                                    
                                                                                                    
                                                                                                    
                                                                                                    
                                                                                                    
                                                                                                    
                                                                                                    
                                                                                                    
                                                                                                    
                                                                                                    
                                                                                                    
                                                                                                    
                                                                                                    
                                                                                                    
                                                                                                    
                                                                                                    
                                                                                                    
                                                                                                    
                           
<?xpacket end="w"?></metadata>
<defs>
    <style>
      .cls-1 {
        fill: #c6d1de;
        fill-rule: evenodd;
      }
    </style>
  </defs>
  <path id="note" class="cls-1" d="M1046.74,365.4h3.42a0.861,0.861,0,0,0,0-1.721h-3.42A0.861,0.861,0,0,0,1046.74,365.4Zm0,3.755h7.18a0.861,0.861,0,0,0,0-1.722h-7.18A0.861,0.861,0,0,0,1046.74,369.154Zm7.52,1.7h-7.52a0.852,0.852,0,1,0,0,1.7h7.52A0.852,0.852,0,1,0,1054.26,370.857Zm3.24-7.209v10.289a1.914,1.914,0,0,1-1.91,1.92h-10.18a1.914,1.914,0,0,1-1.91-1.92V362.056a1.909,1.909,0,0,1,1.91-1.913h8.67Z" transform="translate(-1043.5 -360.156)"/>
</svg>
