<svg xmlns="http://www.w3.org/2000/svg" width="14.312" height="16" viewBox="0 0 14.312 16">
  <metadata><?xpacket begin="﻿" id="W5M0MpCehiHzreSzNTczkc9d"?>
<x:xmpmeta xmlns:x="adobe:ns:meta/" x:xmptk="Adobe XMP Core 5.6-c138 79.159824, 2016/09/14-01:09:01        ">
   <rdf:RDF xmlns:rdf="http://www.w3.org/1999/02/22-rdf-syntax-ns#">
      <rdf:Description rdf:about=""/>
   </rdf:RDF>
</x:xmpmeta>
                                                                                                    
                                                                                                    
                                                                                                    
                                                                                                    
                                                                                                    
                                                                                                    
                                                                                                    
                                                                                                    
                                                                                                    
                                                                                                    
                                                                                                    
                                                                                                    
                                                                                                    
                                                                                                    
                                                                                                    
                                                                                                    
                                                                                                    
                                                                                                    
                                                                                                    
                                                                                                    
                           
<?xpacket end="w"?></metadata>
<defs>
    <style>
      .cls-1 {
        fill: #fc0;
        fill-rule: evenodd;
      }
    </style>
  </defs>
  <path id="note" class="cls-1" d="M155.663,1068.35h3.488a0.88,0.88,0,0,0,0-1.76h-3.488A0.88,0.88,0,0,0,155.663,1068.35Zm0,3.83h7.324a0.88,0.88,0,0,0,0-1.76h-7.324A0.88,0.88,0,0,0,155.663,1072.18Zm7.673,1.73h-7.673a0.87,0.87,0,1,0,0,1.74h7.673A0.87,0.87,0,1,0,163.336,1073.91Zm3.307-7.35v10.5a1.953,1.953,0,0,1-1.95,1.95H154.307a1.953,1.953,0,0,1-1.95-1.95v-12.12a1.946,1.946,0,0,1,1.95-1.95h8.843Z" transform="translate(-152.344 -1063)"/>
</svg>
