<svg xmlns="http://www.w3.org/2000/svg" width="16" height="13.124" viewBox="0 0 16 13.124">
  <metadata><?xpacket begin="﻿" id="W5M0MpCehiHzreSzNTczkc9d"?>
<x:xmpmeta xmlns:x="adobe:ns:meta/" x:xmptk="Adobe XMP Core 5.6-c138 79.159824, 2016/09/14-01:09:01        ">
   <rdf:RDF xmlns:rdf="http://www.w3.org/1999/02/22-rdf-syntax-ns#">
      <rdf:Description rdf:about=""/>
   </rdf:RDF>
</x:xmpmeta>
                                                                                                    
                                                                                                    
                                                                                                    
                                                                                                    
                                                                                                    
                                                                                                    
                                                                                                    
                                                                                                    
                                                                                                    
                                                                                                    
                                                                                                    
                                                                                                    
                                                                                                    
                                                                                                    
                                                                                                    
                                                                                                    
                                                                                                    
                                                                                                    
                                                                                                    
                                                                                                    
                           
<?xpacket end="w"?></metadata>
<defs>
    <style>
      .cls-1 {
        fill: #4099ff;
        fill-rule: evenodd;
      }
    </style>
  </defs>
  <path id="twitter" class="cls-1" d="M357.775,755.462a6.222,6.222,0,0,1-.774.282,3.43,3.43,0,0,0,.7-1.225,0.258,0.258,0,0,0-.378-0.3,6.076,6.076,0,0,1-1.8.712,3.437,3.437,0,0,0-5.809,2.9,8.784,8.784,0,0,1-6.033-3.2,0.26,0.26,0,0,0-.221-0.094,0.257,0.257,0,0,0-.2.127,3.442,3.442,0,0,0,.352,3.954,2.958,2.958,0,0,1-.46-0.205,0.257,0.257,0,0,0-.383.22v0.045a3.445,3.445,0,0,0,1.681,2.954,2.583,2.583,0,0,1-.262-0.038,0.259,0.259,0,0,0-.294.333,3.436,3.436,0,0,0,2.515,2.3,6.153,6.153,0,0,1-3.974.884,0.258,0.258,0,0,0-.169.474,9.26,9.26,0,0,0,5.007,1.468,8.9,8.9,0,0,0,6.9-3.033,9.613,9.613,0,0,0,2.392-6.264c0-.094,0-0.189,0-0.284a6.683,6.683,0,0,0,1.536-1.628A0.258,0.258,0,0,0,357.775,755.462Z" transform="translate(-342.156 -753.938)"/>
</svg>
