<svg xmlns="http://www.w3.org/2000/svg" width="16" height="15" viewBox="0 0 16 15">
  <metadata><?xpacket begin="﻿" id="W5M0MpCehiHzreSzNTczkc9d"?>
<x:xmpmeta xmlns:x="adobe:ns:meta/" x:xmptk="Adobe XMP Core 5.6-c138 79.159824, 2016/09/14-01:09:01        ">
   <rdf:RDF xmlns:rdf="http://www.w3.org/1999/02/22-rdf-syntax-ns#">
      <rdf:Description rdf:about=""/>
   </rdf:RDF>
</x:xmpmeta>
                                                                                                    
                                                                                                    
                                                                                                    
                                                                                                    
                                                                                                    
                                                                                                    
                                                                                                    
                                                                                                    
                                                                                                    
                                                                                                    
                                                                                                    
                                                                                                    
                                                                                                    
                                                                                                    
                                                                                                    
                                                                                                    
                                                                                                    
                                                                                                    
                                                                                                    
                                                                                                    
                           
<?xpacket end="w"?></metadata>
<defs>
    <style>
      .cls-1 {
        fill: #fff;
        fill-rule: evenodd;
      }
    </style>
  </defs>
  <path id="edit" class="cls-1" d="M497.459,487.513a2.4,2.4,0,0,0-.778-1.764l-0.079-.074a2.782,2.782,0,0,0-3.755,0l-7.512,7.065a0.548,0.548,0,0,0-.17.333l-0.368,3.159a0.536,0.536,0,0,0,.171.454,0.611,0.611,0,0,0,.482.16l3.362-.346a0.591,0.591,0,0,0,.354-0.16l2.9-2.721a0.535,0.535,0,0,0,0-.787,0.618,0.618,0,0,0-.837,0l-2.748,2.583-2.426.246,0.263-2.28,7.37-6.92a1.545,1.545,0,0,1,2.084,0l0.079,0.074a1.331,1.331,0,0,1,0,1.96l-1.829,1.718a0.543,0.543,0,0,0-.174.392l0,7.956a0.27,0.27,0,0,1-.276.26H482.936a0.27,0.27,0,0,1-.276-0.26v-10a0.27,0.27,0,0,1,.276-0.259h5.676a0.556,0.556,0,1,0,0-1.11h-5.676a1.414,1.414,0,0,0-1.458,1.366v10a1.417,1.417,0,0,0,1.458,1.37h10.636a1.417,1.417,0,0,0,1.458-1.37l0-7.725,1.655-1.555A2.406,2.406,0,0,0,497.459,487.513Z" transform="translate(-481.469 -484.938)"/>
</svg>
